<?xml version="1.0" encoding="UTF-8" standalone="no"?>
<svg width="38px" height="30px" viewBox="0 0 38 30" version="1.1" xmlns="http://www.w3.org/2000/svg" xmlns:xlink="http://www.w3.org/1999/xlink">
    <!-- Generator: Sketch 50.2 (55047) - http://www.bohemiancoding.com/sketch -->
    <title>hamburger-menu-icon</title>
    <desc>Created with Sketch.</desc>
    <defs></defs>
    <g id="Symbols" stroke="none" stroke-width="1" fill="none" fill-rule="evenodd">
        <g id="NavBar/Mobil/Color" transform="translate(-309.000000, -25.000000)">
            <g id="NavBar">
                <g id="NavBar-Content">
                    <g id="MenuItems" transform="translate(309.000000, 21.000000)">
                        <g id="hamburger-menu-icon">
                            <rect id="Rectangle-2" x="0" y="0" width="38" height="38"></rect>
                            <path d="M0,4 L34,4 C36.209139,4 38,5.790861 38,8 L4,8 C1.790861,8 2.705415e-16,6.209139 0,4 Z M0,17 L34,17 C36.209139,17 38,18.790861 38,21 L4,21 C1.790861,21 2.705415e-16,19.209139 0,17 Z M0,30 L34,30 C36.209139,30 38,31.790861 38,34 L4,34 C1.790861,34 2.705415e-16,32.209139 0,30 Z" id="Combined-Shape" fill="#FFFFFF"></path>
                        </g>
                    </g>
                </g>
            </g>
        </g>
    </g>
</svg>