<?xml version="1.0" encoding="UTF-8" standalone="no"?>
<svg width="71px" height="71px" viewBox="0 0 71 71" version="1.1" xmlns="http://www.w3.org/2000/svg" xmlns:xlink="http://www.w3.org/1999/xlink">
    <!-- Generator: Sketch 50.2 (55047) - http://www.bohemiancoding.com/sketch -->
    <title>ServicesIcons/Icon-5</title>
    <desc>Created with Sketch.</desc>
    <defs></defs>
    <g id="ServicesIcons/Icon-5" stroke="none" stroke-width="1" fill="none" fill-rule="evenodd">
        <g id="5" stroke="#EF8646" stroke-width="2">
            <circle id="Oval-Copy" cx="35.5" cy="35.5" r="34.5"></circle>
        </g>
        <path d="M30,42 C30,43.657 28.657,45 27,45 C28.657,45 30,46.343 30,48 L30,57 C30,58.657 28.657,60 27,60 L23,60 C21.343,60 20,58.657 20,57 L20,48 C20,46.343 21.343,45 23,45 C21.343,45 20,43.657 20,42 C20,40.343 21.343,39 23,39 L24,39 L24,17 L23,11 L23,10 L27,10 L27,11 L26,17 L26,39 L27,39 C28.657,39 30,40.343 30,42 Z M45,46 C46.194,46.502 47.33,46.865 48.221,47.987 C50.431,50.771 50.59,54.794 48.654,57.788 C48.116,58.624 47.464,59.3 46.748,59.838 C46.195,60.253 45.423,59.818 45.423,59.121 L45.423,53.987 C45.423,53.444 44.995,53.003 44.463,53.003 L39.535,53.003 C39.007,53.003 38.58,53.444 38.58,53.987 L38.58,59.115 C38.58,59.843 37.778,60.238 37.21,59.808 C36.509,59.269 35.876,58.603 35.344,57.783 C33.408,54.794 33.572,50.766 35.782,47.987 C36.673,46.865 37.8,46.502 39,46 L39,24 C37.8,23.498 36.673,23.133 35.782,22.01 C33.572,19.232 33.408,15.203 35.344,12.215 C35.887,11.379 36.539,10.698 37.255,10.16 C37.803,9.75 38.58,10.18 38.58,10.882 L38.58,16.01 C38.58,16.559 39.007,17 39.535,17 L44.463,17 C44.995,17 45.423,16.559 45.423,16.01 L45.423,10.882 C45.423,10.154 46.225,9.76 46.792,10.195 C47.494,10.729 48.126,11.395 48.654,12.215 C50.59,15.203 50.431,19.232 48.221,22.015 C47.33,23.138 46.194,23.498 45,24 L45,46 Z" id="Fill-4" fill="#EF8646"></path>
    </g>
</svg>