<?xml version="1.0" encoding="UTF-8" standalone="no"?>
<svg width="71px" height="71px" viewBox="0 0 71 71" version="1.1" xmlns="http://www.w3.org/2000/svg" xmlns:xlink="http://www.w3.org/1999/xlink">
    <!-- Generator: Sketch 50.2 (55047) - http://www.bohemiancoding.com/sketch -->
    <title>ServicesIcons/Icon-8</title>
    <desc>Created with Sketch.</desc>
    <defs></defs>
    <g id="ServicesIcons/Icon-8" stroke="none" stroke-width="1" fill="none" fill-rule="evenodd">
        <g id="8">
            <circle id="Oval" stroke="#EA618A" stroke-width="2" cx="35.5" cy="35.5" r="34.5"></circle>
            <path d="M21.7075472,50.6278868 L49.2932642,50.6278868 L49.2932642,42.5146792 L21.7075472,42.5146792 L21.7075472,50.6278868 Z M35.5,18.1742453 C41.087566,18.1742453 45.6171698,22.7038491 45.6171698,28.2922264 C45.6171698,33.8797925 41.087566,38.4093962 35.5,38.4093962 C29.912434,38.4093962 25.3828302,33.8797925 25.3828302,28.2922264 C25.3828302,22.7038491 29.912434,18.1742453 35.5,18.1742453 Z M57,22.0783208 C57,17.6168679 53.3831321,14 48.9216792,14 L22.0783208,14 C17.6168679,14 14,17.6168679 14,22.0783208 L14,48.9216792 C14,53.3831321 17.6168679,57 22.0783208,57 L48.9216792,57 C53.3831321,57 57,53.3831321 57,48.9216792 L57,22.0783208 Z M47.6706226,44.1373208 L47.6706226,49.0052453 L44.4245283,49.0052453 L44.4245283,47.3826038 L42.8018868,47.3826038 L42.8018868,49.0052453 L40.3679245,49.0052453 L40.3679245,45.7599623 L38.745283,45.7599623 L38.745283,49.0052453 L36.3113208,49.0052453 L36.3113208,47.3826038 L34.6886792,47.3826038 L34.6886792,49.0052453 L32.254717,49.0052453 L32.254717,47.3826038 L30.6320755,47.3826038 L30.6320755,49.0052453 L28.1981132,49.0052453 L28.1981132,47.3826038 L26.5754717,47.3826038 L26.5754717,49.0052453 L23.3301887,49.0052453 L23.3301887,44.1373208 L47.6706226,44.1373208 Z M35.3888491,28.0415283 C35.5267736,27.9798679 35.6890377,28.0423396 35.7506981,28.1802642 C35.8115472,28.319 35.7490755,28.4812642 35.6111509,28.5429245 C35.4732264,28.6037736 35.3101509,28.5413019 35.2493019,28.4033774 C35.1876415,28.2654528 35.2501132,28.1023774 35.3888491,28.0415283 Z M34.7292453,26.558434 C35.4204906,26.2517547 36.1928679,26.3953585 36.7315849,26.857 L42.2688491,24.838434 L42.5990566,25.5799811 L37.3911887,28.339283 C37.371717,29.047566 36.9611887,29.717717 36.2707547,30.0252075 C35.3133962,30.4511509 34.1921509,30.0203396 33.7670189,29.0621698 C33.3410755,28.1056226 33.7718868,26.9843774 34.7292453,26.558434 Z M29.5603208,33.0838868 L30.7075283,34.2310943 L30.0966038,34.8420189 C31.3703774,35.8934906 32.9540755,36.5798679 34.6886792,36.7453774 L34.6886792,35.8796981 L36.3113208,35.8796981 L36.3113208,36.7453774 C38.0451132,36.5806792 39.6296226,35.8943019 40.9025849,34.8420189 L40.2916604,34.2310943 L41.4388679,33.0838868 L42.0497925,33.6948113 C43.1020755,32.4218491 43.7876415,30.8373396 43.9539623,29.1035472 L43.0874717,29.1035472 L43.0874717,27.4809057 L43.9539623,27.4809057 C43.7876415,25.7463019 43.1020755,24.1617925 42.0497925,22.8888302 L41.4388679,23.4997547 L40.2916604,22.3525472 L40.9025849,21.7416226 C39.6288113,20.6901509 38.0451132,20.0029623 36.3113208,19.8382642 L36.3113208,20.7039434 L34.6886792,20.7039434 L34.6886792,19.8382642 C32.9540755,20.0029623 31.3703774,20.6901509 30.0966038,21.7416226 L30.7075283,22.3525472 L29.5603208,23.4997547 L28.9493962,22.8888302 C27.8979245,24.1626038 27.2115472,25.7463019 27.0468491,27.4809057 L27.911717,27.4809057 L27.911717,29.1035472 L27.0468491,29.1035472 C27.2115472,30.8373396 27.8979245,32.4218491 28.9493962,33.6948113 L29.5603208,33.0838868 Z" id="Fill-1" fill="#EA618A"></path>
        </g>
    </g>
</svg>