<?xml version="1.0" encoding="UTF-8" standalone="no"?>
<svg width="71px" height="71px" viewBox="0 0 71 71" version="1.1" xmlns="http://www.w3.org/2000/svg" xmlns:xlink="http://www.w3.org/1999/xlink">
    <!-- Generator: Sketch 50.2 (55047) - http://www.bohemiancoding.com/sketch -->
    <title>ServicesIcons/Icon-4</title>
    <desc>Created with Sketch.</desc>
    <defs></defs>
    <g id="ServicesIcons/Icon-4" stroke="none" stroke-width="1" fill="none" fill-rule="evenodd">
        <path d="M54.1343403,32.3013281 C56.4990864,32.3013281 58.4237356,34.2259773 58.4237356,36.5930479 L58.4237356,39.2708207 C58.4237356,43.7639933 55.5514834,47.5884975 51.552645,49.0366333 C51.3852842,50.4375052 50.20756,51.5269 48.7601991,51.5269 C47.5406347,51.5269 46.5093513,50.7474326 46.1149686,49.6634615 L25.308767,49.6634615 C24.9136095,50.7474326 23.8846505,51.5269 22.6627617,51.5269 C21.2169504,51.5269 20.0384514,50.4375052 19.8710906,49.0366333 C15.8714774,47.5884975 13,43.7639933 13,39.2708207 L13,36.5930479 C13,34.2259773 14.9238744,32.3013281 17.2878457,32.3013281 C19.6525918,32.3013281 21.5756914,34.2259773 21.5756914,36.5930479 L21.5756914,39.2708207 C21.5756914,40.2718862 22.3892508,41.0869953 23.3903163,41.0869953 L48.0318696,41.0869953 C49.0329352,41.0869953 49.8472694,40.2718862 49.8472694,39.2708207 L49.8472694,36.5930479 C49.8472694,34.2259773 51.7695942,32.3013281 54.1343403,32.3013281 Z M23.1900257,36.5931254 C23.1900257,33.6116237 20.9655218,31.1662965 18.0948192,30.7688146 L18.0948192,27.6292499 C18.0948192,25.6286685 19.7234877,24 21.7240691,24 L49.7012161,24 C51.7002479,24 53.3273668,25.6286685 53.3273668,27.6292499 L53.3273668,30.7688146 C50.4582138,31.1662965 48.2337099,33.6116237 48.2337099,36.5931254 L48.2337099,39.2708982 C48.2337099,39.3801476 48.1422813,39.472351 48.0330319,39.472351 L23.3907037,39.472351 C23.2814543,39.472351 23.1900257,39.3793728 23.1900257,39.2708982 L23.1900257,36.5931254 Z" id="Fill-3" fill="#F1911C"></path>
        <circle id="Oval-Copy" stroke="#F1911C" stroke-width="2" cx="35.5" cy="35.5" r="34.5"></circle>
    </g>
</svg>