<?xml version="1.0" encoding="UTF-8" standalone="no"?>
<svg width="71px" height="71px" viewBox="0 0 71 71" version="1.1" xmlns="http://www.w3.org/2000/svg" xmlns:xlink="http://www.w3.org/1999/xlink">
    <!-- Generator: Sketch 50.2 (55047) - http://www.bohemiancoding.com/sketch -->
    <title>ServicesIcons/Icon-2</title>
    <desc>Created with Sketch.</desc>
    <defs></defs>
    <g id="ServicesIcons/Icon-2" stroke="none" stroke-width="1" fill="none" fill-rule="evenodd">
        <g id="2" stroke="#478AC6" stroke-width="2">
            <circle id="Oval-Copy" cx="35.5" cy="35.5" r="34.5"></circle>
        </g>
        <path d="M37,43.8290846 L37,54 L23,54 C20.7907153,54 19,52.2092847 19,50 L19,34 L21,34 L21,50 C21,51.1047153 21.8952847,52 23,52 L35,52 L35,43.8290846 C33.8351774,43.4169584 33,42.3054194 33,41 C33,39.344 34.344,38 36,38 C37.656,38 39,39.344 39,41 C39,42.3054194 38.1648226,43.4169584 37,43.8290846 Z M12.6919054,37.7219882 L11.3080946,36.2780118 L36.0151153,12.6004503 L59.7073372,36.3081238 L58.2926628,37.7218762 L35.9848847,15.3995497 L12.6919054,37.7219882 Z M50,34 L52,34 L52,50 C52,52.2092847 50.2092847,54 48,54 L39,54 L39,52 L48,52 C49.1047153,52 50,51.1047153 50,50 L50,34 Z M47.0053134,29.6291008 L45.5894866,31.0416992 C40.2921843,25.7322899 31.703547,25.7322899 26.4052514,31.0417614 L24.9895486,29.6290386 C31.069253,23.5365101 40.9266157,23.5365101 47.0053134,29.6291008 Z M44.3981715,32.2419586 L42.9826285,33.6548414 C39.1243182,29.7892667 32.8705737,29.7892667 29.0132546,33.6547581 L27.5975454,32.2420419 C32.2362263,27.5935333 39.7584818,27.5935333 44.3981715,32.2419586 Z M31.6202608,36.268752 L30.2045392,34.856048 C33.4042563,31.6494963 38.5916828,31.6494963 41.7903865,34.856174 L40.3744135,36.268626 C37.9571172,33.8453037 34.0385437,33.8453037 31.6202608,36.268752 Z" id="Combined-Shape" fill="#478AC6"></path>
    </g>
</svg>