<?xml version="1.0" encoding="UTF-8" standalone="no"?>
<svg width="71px" height="71px" viewBox="0 0 71 71" version="1.1" xmlns="http://www.w3.org/2000/svg" xmlns:xlink="http://www.w3.org/1999/xlink">
    <!-- Generator: Sketch 50.2 (55047) - http://www.bohemiancoding.com/sketch -->
    <title>ServicesIcons/Icon-6</title>
    <desc>Created with Sketch.</desc>
    <defs></defs>
    <g id="ServicesIcons/Icon-6" stroke="none" stroke-width="1" fill="none" fill-rule="evenodd">
        <g id="6" stroke="#ED7C64" stroke-width="2">
            <circle id="Oval-Copy" cx="35.5" cy="35.5" r="34.5"></circle>
        </g>
        <path d="M53,36.377 C53,37.273 52.273,38 51.377,38 L45.623,38 C44.727,38 44,37.273 44,36.377 L44,33.623 C44,32.727 44.727,32 45.623,32 L51.377,32 C52.273,32 53,32.727 53,33.623 L53,36.377 Z M39,43 L44,43 L44,41 L39,41 L39,43 Z M18,47 L38,47 L38,45 L18,45 L18,47 Z M18,43 L23,43 L23,41 L18,41 L18,43 Z M25,43 L30,43 L30,41 L25,41 L25,43 Z M32,43 L37,43 L37,41 L32,41 L32,43 Z M22,26 C22.915,26 23.762,26.265 24.5,26.695 C25.238,26.265 26.085,26 27,26 C29.757,26 32,28.243 32,31 C32,33.757 29.757,36 27,36 C26.085,36 25.238,35.735 24.5,35.305 C23.762,35.735 22.915,36 22,36 C19.243,36 17,33.757 17,31 C17,28.243 19.243,26 22,26 Z M54.115,22 C56.261,22 58,23.739 58,25.885 L58,47.115 C58,49.261 56.261,51 54.115,51 L16.885,51 C14.739,51 13,49.261 13,47.115 L13,25.885 C13,23.739 14.739,22 16.885,22 L54.115,22 Z M25,31 C25,30.389 24.814,29.822 24.5,29.348 C24.186,29.822 24,30.389 24,31 C24,31.611 24.186,32.178 24.5,32.652 C24.814,32.178 25,31.611 25,31 Z M27,34 C28.654,34 30,32.654 30,31 C30,29.346 28.654,28 27,28 C26.685,28 26.386,28.063 26.101,28.153 C26.665,28.962 27,29.941 27,31 C27,32.059 26.665,33.038 26.101,33.847 C26.387,33.938 26.685,34 27,34 Z M22,34 C22.315,34 22.614,33.938 22.899,33.847 C22.335,33.038 22,32.059 22,31 C22,29.941 22.335,28.962 22.899,28.153 C22.613,28.063 22.315,28 22,28 C20.346,28 19,29.346 19,31 C19,32.654 20.346,34 22,34 Z" id="Fill-7" fill="#ED7C64"></path>
    </g>
</svg>