<?xml version="1.0" encoding="UTF-8" standalone="no"?>
<svg width="71px" height="71px" viewBox="0 0 71 71" version="1.1" xmlns="http://www.w3.org/2000/svg" xmlns:xlink="http://www.w3.org/1999/xlink">
    <!-- Generator: Sketch 50.2 (55047) - http://www.bohemiancoding.com/sketch -->
    <title>ServicesIcons/Icon-1</title>
    <desc>Created with Sketch.</desc>
    <defs></defs>
    <g id="ServicesIcons/Icon-1" stroke="none" stroke-width="1" fill="none" fill-rule="evenodd">
        <circle id="Oval-Copy" stroke="#454771" stroke-width="2" cx="35.5" cy="35.5" r="34.5"></circle>
        <path d="M36,53.8999684 L59,43.3583018 L59,28.5583649 L36,39.1000316 L36,53.8999684 Z M14.4000689,27 L36,36.8999684 L57.5999311,27 L36,17.1000316 L14.4000689,27 Z M11,26.3583018 L36,14.8999684 L61,26.3583018 L61,44.6416982 L36,56.1000316 L11,44.6416982 L11,26.3583018 Z" id="Combined-Shape" fill="#454771" fill-rule="nonzero"></path>
        <path d="M18,25 C18,23.343 20.687,22 24,22 C27.313,22 30,23.343 30,25 L30,27.571 C30,29.229 27.314,30.571 24,30.571 C20.687,30.571 18,29.229 18,27.571 L18,25 Z M29,26.6588238 C27.9249572,27.4672425 26.0866432,28 24,28 C21.9133568,28 20.0750428,27.4672425 19,26.6588238 L19,27.571 C19,28.387 20.948,29.571 24,29.571 C27.052,29.571 29,28.387 29,27.571 L29,26.6588238 Z" id="Fill-6" fill="#454771"></path>
        <path d="M30,20 C30,18.343 32.687,17 36,17 C39.313,17 42,18.343 42,20 L42,22.571 C42,24.229 39.314,25.571 36,25.571 C32.687,25.571 30,24.229 30,22.571 L30,20 Z M41,21.6588238 C39.9249572,22.4672425 38.0866432,23 36,23 C33.9133568,23 32.0750428,22.4672425 31,21.6588238 L31,22.571 C31,23.387 32.948,24.571 36,24.571 C39.052,24.571 41,23.387 41,22.571 L41,21.6588238 Z" id="Fill-10" fill="#454771"></path>
        <path d="M30,30 C30,28.343 32.687,27 36,27 C39.313,27 42,28.343 42,30 L42,32.571 C42,34.229 39.314,35.571 36,35.571 C32.687,35.571 30,34.229 30,32.571 L30,30 Z M41,31.6588238 C39.9249572,32.4672425 38.0866432,33 36,33 C33.9133568,33 32.0750428,32.4672425 31,31.6588238 L31,32.571 C31,33.387 32.948,34.571 36,34.571 C39.052,34.571 41,33.387 41,32.571 L41,31.6588238 Z" id="Fill-14" fill="#454771"></path>
        <path d="M42,25 C42,23.343 44.687,22 48,22 C51.313,22 54,23.343 54,25 L54,27.571 C54,29.229 51.314,30.571 48,30.571 C44.687,30.571 42,29.229 42,27.571 L42,25 Z M53,26.6588238 C51.9249572,27.4672425 50.0866432,28 48,28 C45.9133568,28 44.0750428,27.4672425 43,26.6588238 L43,27.571 C43,28.387 44.948,29.571 48,29.571 C51.052,29.571 53,28.387 53,27.571 L53,26.6588238 Z" id="Fill-20" fill="#454771"></path>
    </g>
</svg>