<?xml version="1.0" encoding="UTF-8" standalone="no"?>
<svg width="72px" height="72px" viewBox="0 0 72 72" version="1.1" xmlns="http://www.w3.org/2000/svg" xmlns:xlink="http://www.w3.org/1999/xlink">
    <!-- Generator: Sketch 50.2 (55047) - http://www.bohemiancoding.com/sketch -->
    <title>Social/Instagram</title>
    <desc>Created with Sketch.</desc>
    <defs></defs>
    <g id="Social/Instagram" stroke="none" stroke-width="1" fill="none" fill-rule="evenodd">
        <circle id="Oval" stroke="#FFFFFF" cx="36" cy="36" r="35.5"></circle>
        <path d="M35.664,16 C30.324,16 29.654,16.023 27.557,16.119 C25.464,16.214 24.035,16.547 22.784,17.032 C21.49,17.535 20.394,18.207 19.301,19.301 C18.207,20.394 17.535,21.491 17.033,22.784 C16.547,24.035 16.214,25.464 16.119,27.557 C16.023,29.654 16,30.324 16,35.664 C16,41.004 16.023,41.674 16.119,43.771 C16.214,45.865 16.547,47.294 17.033,48.545 C17.535,49.837 18.207,50.935 19.301,52.028 C20.394,53.121 21.49,53.793 22.784,54.296 C24.035,54.782 25.464,55.114 27.557,55.21 C29.654,55.306 30.324,55.328 35.664,55.328 C41.005,55.328 41.674,55.306 43.771,55.21 C45.865,55.114 47.294,54.782 48.545,54.296 C49.838,53.793 50.935,53.121 52.028,52.028 C53.121,50.935 53.793,49.837 54.296,48.545 C54.782,47.294 55.114,45.865 55.21,43.771 C55.306,41.674 55.328,41.004 55.328,35.664 C55.328,30.324 55.306,29.654 55.21,27.557 C55.114,25.464 54.782,24.035 54.296,22.784 C53.793,21.491 53.121,20.394 52.028,19.301 C50.935,18.207 49.838,17.535 48.545,17.032 C47.294,16.547 45.865,16.214 43.771,16.119 C41.674,16.023 41.005,16 35.664,16 M35.664,19.543 C40.915,19.543 41.537,19.563 43.61,19.658 C45.527,19.745 46.568,20.065 47.262,20.335 C48.179,20.692 48.834,21.118 49.522,21.806 C50.211,22.494 50.637,23.149 50.993,24.066 C51.263,24.76 51.583,25.801 51.67,27.718 C51.765,29.792 51.785,30.414 51.785,35.664 C51.785,40.915 51.765,41.537 51.67,43.61 C51.583,45.527 51.263,46.568 50.993,47.261 C50.637,48.179 50.211,48.834 49.522,49.522 C48.834,50.21 48.179,50.636 47.262,50.993 C46.568,51.263 45.527,51.583 43.61,51.67 C41.537,51.765 40.915,51.785 35.664,51.785 C30.413,51.785 29.792,51.765 27.718,51.67 C25.801,51.583 24.76,51.263 24.067,50.993 C23.149,50.636 22.494,50.21 21.806,49.522 C21.118,48.834 20.692,48.179 20.335,47.261 C20.066,46.568 19.746,45.527 19.658,43.61 C19.563,41.537 19.543,40.915 19.543,35.664 C19.543,30.414 19.563,29.792 19.658,27.718 C19.746,25.801 20.066,24.76 20.335,24.066 C20.692,23.149 21.118,22.494 21.806,21.806 C22.494,21.118 23.149,20.692 24.067,20.335 C24.76,20.065 25.801,19.745 27.718,19.658 C29.792,19.563 30.414,19.543 35.664,19.543 Z M35.664,42.2187 C32.044,42.2187 29.11,39.2837 29.11,35.6637 C29.11,32.0437 32.044,29.1097 35.664,29.1097 C39.284,29.1097 42.219,32.0437 42.219,35.6637 C42.219,39.2837 39.284,42.2187 35.664,42.2187 Z M35.664,25.5667 C30.088,25.5667 25.566,30.0877 25.566,35.6637 C25.566,41.2407 30.088,45.7617 35.664,45.7617 C41.241,45.7617 45.762,41.2407 45.762,35.6637 C45.762,30.0877 41.241,25.5667 35.664,25.5667 Z M48.5204,25.1674 C48.5204,23.8644 47.4644,22.8074 46.1614,22.8074 C44.8574,22.8074 43.8014,23.8644 43.8014,25.1674 C43.8014,26.4704 44.8574,27.5274 46.1614,27.5274 C47.4644,27.5274 48.5204,26.4704 48.5204,25.1674 Z" id="Combined-Shape" fill="#FFFFFF"></path>
    </g>
</svg>