<?xml version="1.0" encoding="UTF-8" standalone="no"?>
<svg width="250px" height="64px" viewBox="0 0 250 64" version="1.1" xmlns="http://www.w3.org/2000/svg" xmlns:xlink="http://www.w3.org/1999/xlink">
    <!-- Generator: Sketch 50.2 (55047) - http://www.bohemiancoding.com/sketch -->
    <title>livee-logo-color</title>
    <desc>Created with Sketch.</desc>
    <defs></defs>
    <g id="Symbols" stroke="none" stroke-width="1" fill="none" fill-rule="evenodd">
        <g id="Logo-color" transform="translate(-31.000000, -30.000000)">
            <g id="livee-logo-color" transform="translate(31.000000, 30.000000)">
                <path d="M39.4056,62.0109 L24.1286,62.0109 C11.0636,62.0109 0.4716,51.4199 0.4716,38.3539 L0.4716,1.6249 C3.3686,1.6249 5.7166,3.9729 5.7166,6.8699 L5.7166,38.3539 C5.7166,48.5229 13.9606,56.7659 24.1286,56.7659 L44.6506,56.7659 C44.6506,59.6629 42.3016,62.0109 39.4056,62.0109" id="L" fill="#F96A96"></path>
                <path d="M52.4305,1.6252 C55.3275,1.6252 57.6765,3.9742 57.6765,6.8702 L57.6765,61.9572 C54.7795,61.9572 52.4305,59.6092 52.4305,56.7122 L52.4305,1.6252 Z" id="I" fill="#FD7A83"></path>
                <path d="M68.4373,1.6252 C70.5763,1.6252 72.4893,2.9572 73.2303,4.9642 L91.5523,54.5422 C92.1593,56.1582 92.6073,57.3572 93.7943,57.3572 C94.8723,57.3572 95.5803,55.5822 96.0273,54.5422 L114.3493,4.9642 C115.0903,2.9572 117.0033,1.6252 119.1423,1.6252 L121.2133,1.6252 L100.5023,57.1022 C99.0973,61.0632 97.3613,63.2372 93.7943,63.2372 C89.7933,63.2372 88.0433,59.5862 87.0773,57.1022 L66.3763,1.6252 L68.4373,1.6252 Z" id="V" fill="#FC8463"></path>
                <path d="M121.7338,31.0131 C121.7338,16.3471 133.9028,0.4751 152.6758,0.4751 C152.8848,0.4701 153.0928,0.4681 153.3018,0.4681 C166.1548,0.4681 176.3708,9.9371 176.3708,14.2171 C176.3708,16.3941 175.0528,17.7801 174.1378,18.3921 L136.3158,43.6821 C135.0118,41.4831 135.5368,38.4921 137.8448,36.9511 L171.2118,14.6661 C169.0888,11.7171 163.4498,5.0801 152.5508,5.0801 C138.5868,5.0801 127.2398,16.4581 127.2398,31.6661 C127.2398,46.5091 138.1508,58.1221 152.2908,58.1221 C165.4868,58.1221 174.5108,48.9831 176.7178,36.6921 C177.1458,34.3051 179.2238,32.5611 181.6498,32.5611 L182.7118,32.5611 C181.8908,46.9651 172.3678,62.7981 152.2908,63.1071 C133.1248,63.1071 121.7338,46.7111 121.7338,31.0131 Z" id="E" fill="#FA8D3E"></path>
                <path d="M188.6635,31.0131 C188.6635,16.3471 200.8335,0.4751 219.6065,0.4751 C219.8145,0.4701 220.0235,0.4681 220.2325,0.4681 C233.0855,0.4681 243.3015,9.9371 243.3015,14.2171 C243.3015,16.3941 241.9835,17.7801 241.0685,18.3921 L203.2455,43.6821 C201.9425,41.4831 202.4675,38.4921 204.7755,36.9511 L238.1415,14.6661 C236.0195,11.7171 230.3795,5.0801 219.4815,5.0801 C205.5175,5.0801 194.1705,16.4581 194.1705,31.6661 C194.1705,46.5091 205.0815,58.1221 219.2215,58.1221 C232.4175,58.1221 241.4405,48.9831 243.6475,36.6921 C244.0765,34.3051 246.1535,32.5611 248.5805,32.5611 L249.6425,32.5611 C248.8215,46.9651 239.2985,62.7981 219.2215,63.1071 C200.0555,63.1071 188.6635,46.7111 188.6635,31.0131 Z" id="E" fill="#F49303"></path>
            </g>
        </g>
    </g>
</svg>