<?xml version="1.0" encoding="UTF-8" standalone="no"?>
<svg width="208px" height="61px" viewBox="0 0 208 61" version="1.1" xmlns="http://www.w3.org/2000/svg" xmlns:xlink="http://www.w3.org/1999/xlink">
    <!-- Generator: Sketch 50.2 (55047) - http://www.bohemiancoding.com/sketch -->
    <title>NKM-logo</title>
    <desc>Created with Sketch.</desc>
    <defs></defs>
    <g id="Desktop" stroke="none" stroke-width="1" fill="none" fill-rule="evenodd">
        <g id="Livee-Desktop" transform="translate(-982.000000, -5021.000000)" fill="#FFFFFF">
            <g id="Footer" transform="translate(0.000000, 4841.000000)">
                <path d="M1097.09938,187.520633 C1098.05752,187.520633 1098.37763,187.840744 1098.37763,188.798884 L1098.37763,231.617005 C1098.37763,232.577338 1098.05752,232.895256 1097.09938,232.895256 L1095.05374,232.895256 C1094.41352,232.895256 1093.96843,232.640922 1093.71191,232.193643 L1073.32567,202.921037 C1072.43111,201.581394 1071.40719,199.792281 1070.2583,197.553698 C1069.10722,195.319499 1068.40561,194.102639 1068.21266,193.782528 L1067.95613,193.782528 C1067.95613,194.102639 1068.08549,195.637417 1068.33983,198.321087 C1068.53277,201.004756 1068.65994,203.24334 1068.65994,205.096037 L1068.65994,231.617005 C1068.65994,232.447978 1068.27625,232.895256 1067.44527,232.895256 L1065.46322,232.895256 C1064.50508,232.895256 1064.18716,232.577338 1064.18716,231.617005 L1064.18716,188.798884 C1064.18716,187.840744 1064.50508,187.520633 1065.46322,187.520633 L1067.50886,187.520633 C1068.08549,187.520633 1068.53277,187.713576 1068.85069,188.160855 L1088.72826,216.856823 C1089.6864,218.262242 1090.83749,220.114938 1092.11574,222.414913 C1093.32821,224.717081 1094.0956,226.058915 1094.41352,226.504001 L1094.60646,226.504001 C1094.60646,226.058915 1094.48149,224.460553 1094.22277,221.647524 C1093.96843,218.902464 1093.84127,216.53452 1093.84127,214.61824 L1093.84127,188.7353 C1093.84127,187.904327 1094.28854,187.520633 1095.11952,187.520633 L1097.09938,187.520633 Z M1141.63974,231.617663 C1142.08483,232.448636 1141.89408,232.895914 1140.93594,232.895914 L1138.8903,232.895914 C1137.29413,232.895914 1136.84466,232.705163 1136.33599,231.747023 L1129.24093,217.559094 C1127.19529,213.467814 1125.02248,211.998812 1120.10242,211.998812 L1113.5818,211.998812 L1113.5818,231.617663 C1113.5818,232.575803 1113.32747,232.895914 1112.36714,232.895914 L1110.25791,232.895914 C1109.29977,232.895914 1108.97966,232.575803 1108.97966,231.617663 L1108.97966,188.799542 C1108.97966,187.839209 1109.29977,187.521291 1110.25791,187.521291 L1112.36714,187.521291 C1113.32747,187.521291 1113.5818,187.839209 1113.5818,188.799542 L1113.5818,207.780364 L1119.71653,207.780364 L1121.12634,207.780364 L1135.44143,188.606598 C1136.01588,187.904985 1136.84466,187.521291 1137.99574,187.521291 L1140.29572,187.521291 C1141.25386,187.521291 1141.4468,188.161512 1140.93594,188.733765 L1125.78987,208.67492 C1128.9844,209.569477 1131.54309,211.933035 1133.52296,215.833565 L1141.63974,231.617663 Z M1188.47745,187.520633 C1189.43559,187.520633 1189.7557,187.840744 1189.7557,188.798884 L1189.7557,231.617005 C1189.7557,232.577338 1189.43559,232.895256 1188.47745,232.895256 L1186.56117,232.895256 C1185.60084,232.895256 1185.28292,232.577338 1185.28292,231.617005 L1185.3465,205.543315 C1185.3465,201.644978 1185.60084,197.873809 1186.11389,194.231999 L1185.85736,194.231999 C1184.51334,197.490114 1182.85358,200.811813 1180.9373,204.199288 L1171.22216,221.329606 C1170.90205,221.967635 1170.45477,222.285553 1169.75315,222.285553 L1168.47271,222.285553 C1167.7711,222.285553 1167.25804,221.967635 1166.94012,221.329606 L1157.09562,204.010729 C1155.49945,201.324867 1153.96686,198.066752 1152.43428,194.166223 L1152.17556,194.166223 C1152.62284,198.066752 1152.87936,201.835729 1152.87936,205.606899 L1152.87936,231.617005 C1152.87936,232.577338 1152.55925,232.895256 1151.6033,232.895256 L1149.812,232.895256 C1148.85386,232.895256 1148.53375,232.577338 1148.53375,231.617005 L1148.53375,188.798884 C1148.53375,187.840744 1148.85386,187.520633 1149.812,187.520633 L1151.47394,187.520633 C1152.30492,187.520633 1152.87936,187.840744 1153.26087,188.542357 L1169.11293,216.600296 L1184.83345,188.60594 C1185.3465,187.649993 1185.60084,187.520633 1186.62256,187.520633 L1188.47745,187.520633 Z M1013.51952,240.330161 L1016.27116,223.747978 L1019.38238,224.263225 L1016.63074,240.845408 L1013.51952,240.330161 Z M987.011051,226.971451 L1002.49916,221.11079 L1003.61516,224.06195 L1003.38494,224.147459 L987.89903,230.010312 L986.780834,227.059152 L987.011051,226.971451 Z M997.936261,207.953794 L995.932279,210.389706 L982.939284,199.709842 L984.943266,197.27393 L997.936261,207.953794 Z M1003.94009,196.849673 L1006.7312,180 L1009.84241,180.51744 L1007.05131,197.36492 L1003.94009,196.849673 Z M1035.40963,191.104998 L1036.51905,194.060542 L1020.781,199.971631 L1019.66938,197.016087 L1035.40963,191.104998 Z M1027.46803,210.861322 L1040.36674,221.433751 L1038.36714,223.876241 L1025.46624,213.299427 L1027.46803,210.861322 Z M982,218.018212 L982,214.863146 L1006.02586,214.863146 L1006.02586,218.018212 L982,218.018212 Z M1020.0329,181.137928 L1022.76481,182.716558 L1010.75407,203.521573 L1008.01997,201.942944 L1020.0329,181.137928 Z M1020.94303,211.707204 L1032.95595,232.510027 L1030.22186,234.088656 L1018.20893,213.285833 L1020.94303,211.707204 Z M1000.5592,238.398752 L1012.57213,217.593736 L1015.30622,219.170173 L1003.29329,239.977381 L1000.5592,238.398752 Z M1005.11661,207.827284 L1002.38251,209.405913 L990.369584,188.598705 L993.103682,187.022268 L1005.11661,207.827284 Z M1017.24728,206.301276 L1017.24728,203.148403 L1041.27314,203.148403 L1041.27314,206.301276 L1017.24728,206.301276 Z" id="NKM-logo"></path>
            </g>
        </g>
    </g>
</svg>