<?xml version="1.0" encoding="UTF-8" standalone="no"?>
<svg width="144px" height="144px" viewBox="0 0 144 144" version="1.1" xmlns="http://www.w3.org/2000/svg" xmlns:xlink="http://www.w3.org/1999/xlink">
    <!-- Generator: Sketch 50.2 (55047) - http://www.bohemiancoding.com/sketch -->
    <title>step-1-icon</title>
    <desc>Created with Sketch.</desc>
    <defs></defs>
    <g id="Symbols" stroke="none" stroke-width="1" fill="none" fill-rule="evenodd">
        <g id="step-1-icon">
            <g>
                <path d="M144,72 C144,111.764 111.764,144 72,144 C32.236,144 0,111.764 0,72 C0,32.236 32.236,0 72,0 C111.764,0 144,32.236 144,72" id="Fill-25" fill="#454771"></path>
                <path d="M44,68 L68,68 L68,44 L44,44 L44,68 Z M48,64 L64,64 L64,48 L48,48 L48,64 Z" id="Fill-27" fill="#FFFFFF"></path>
                <path d="M76,68 L100,68 L100,44 L76,44 L76,68 Z M80,64 L96,64 L96,48 L80,48 L80,64 Z" id="Fill-29" fill="#FFFFFF"></path>
                <path d="M44,100 L68,100 L68,76 L44,76 L44,100 Z M48,96 L64,96 L64,80 L48,80 L48,96 Z" id="Fill-30" fill="#FFFFFF"></path>
                <path d="M76,100 L100,100 L100,76 L76,76 L76,100 Z M80,96 L96,96 L96,80 L80,80 L80,96 Z" id="Fill-31" fill="#FFFFFF"></path>
            </g>
        </g>
    </g>
</svg>