<?xml version="1.0" encoding="UTF-8" standalone="no"?>
<svg width="144px" height="144px" viewBox="0 0 144 144" version="1.1" xmlns="http://www.w3.org/2000/svg" xmlns:xlink="http://www.w3.org/1999/xlink">
    <!-- Generator: Sketch 50.2 (55047) - http://www.bohemiancoding.com/sketch -->
    <title>step-5-icon</title>
    <desc>Created with Sketch.</desc>
    <defs></defs>
    <g id="Symbols" stroke="none" stroke-width="1" fill="none" fill-rule="evenodd">
        <g id="step-5-icon">
            <g>
                <path d="M144,72 C144,111.764 111.764,144 72,144 C32.236,144 0,111.764 0,72 C0,32.236 32.236,0 72,0 C111.764,0 144,32.236 144,72" id="Fill-32" fill="#454771"></path>
                <path d="M72,36 C52.116,36 36,52.116 36,72 C36,91.884 52.116,108 72,108 C91.884,108 108,91.884 108,72 C108,52.116 91.884,36 72,36 M72,40 C89.644,40 104,54.356 104,72 C104,89.644 89.644,104 72,104 C54.356,104 40,89.644 40,72 C40,54.356 54.356,40 72,40" id="Fill-33" fill="#FFFFFF"></path>
                <polyline id="Stroke-34" stroke="#FFFFFF" stroke-width="4" points="72 38.1172 72 72.0012 108 72.0012"></polyline>
            </g>
        </g>
    </g>
</svg>