<?xml version="1.0" encoding="UTF-8" standalone="no"?>
<svg width="144px" height="144px" viewBox="0 0 144 144" version="1.1" xmlns="http://www.w3.org/2000/svg" xmlns:xlink="http://www.w3.org/1999/xlink">
    <!-- Generator: Sketch 50.2 (55047) - http://www.bohemiancoding.com/sketch -->
    <title>step-2-icon</title>
    <desc>Created with Sketch.</desc>
    <defs></defs>
    <g id="Symbols" stroke="none" stroke-width="1" fill="none" fill-rule="evenodd">
        <g id="step-2-icon">
            <g>
                <path d="M144,72 C144,111.764 111.764,144 72,144 C32.236,144 0,111.764 0,72 C0,32.236 32.236,0 72,0 C111.764,0 144,32.236 144,72" id="Fill-35" fill="#454771"></path>
                <path d="M93.748,102 L50.252,102 C45.692,102 42,98.308 42,93.748 L42,50.252 C42,45.692 45.692,42 50.252,42 L93.748,42 C98.308,42 102,45.692 102,50.252 L102,93.748 C102,98.308 98.308,102 93.748,102 Z" id="Stroke-36" stroke="#FFFFFF" stroke-width="4"></path>
                <polyline id="Stroke-37" stroke="#FFFFFF" stroke-width="8" points="52 76 68 88 92 56"></polyline>
            </g>
        </g>
    </g>
</svg>