<?xml version="1.0" encoding="UTF-8" standalone="no"?>
<svg width="144px" height="144px" viewBox="0 0 144 144" version="1.1" xmlns="http://www.w3.org/2000/svg" xmlns:xlink="http://www.w3.org/1999/xlink">
    <!-- Generator: Sketch 50.2 (55047) - http://www.bohemiancoding.com/sketch -->
    <title>step-3-icon</title>
    <desc>Created with Sketch.</desc>
    <defs></defs>
    <g id="Symbols" stroke="none" stroke-width="1" fill="none" fill-rule="evenodd">
        <g id="step-3-icon">
            <g>
                <path d="M144,72 C144,111.764 111.764,144 72,144 C32.236,144 0,111.764 0,72 C0,32.236 32.236,0 72,0 C111.764,0 144,32.236 144,72" id="Fill-1" fill="#454771"></path>
                <polygon id="Stroke-3" stroke="#FFFFFF" stroke-width="4" points="108 105 48 105 48 32 92 32 108 48"></polygon>
                <polyline id="Stroke-5" stroke="#FFFFFF" stroke-width="4" points="92 32 92 48 108 48"></polyline>
                <path d="M58,58 L97,58" id="Stroke-7" stroke="#FFFFFF" stroke-width="4"></path>
                <path d="M58,70 L97,70" id="Stroke-9" stroke="#FFFFFF" stroke-width="4"></path>
                <path d="M58,82 L97,82" id="Stroke-11" stroke="#FFFFFF" stroke-width="4"></path>
                <polygon id="Stroke-13" stroke="#FFFFFF" stroke-width="4" points="48 105 48 40 41 40 41 112 100 112 100 105"></polygon>
            </g>
        </g>
    </g>
</svg>