<?xml version="1.0" encoding="UTF-8" standalone="no"?>
<svg width="72px" height="72px" viewBox="0 0 72 72" version="1.1" xmlns="http://www.w3.org/2000/svg" xmlns:xlink="http://www.w3.org/1999/xlink">
    <!-- Generator: Sketch 50.2 (55047) - http://www.bohemiancoding.com/sketch -->
    <title>Social/Youtube</title>
    <desc>Created with Sketch.</desc>
    <defs></defs>
    <g id="Social/Youtube" stroke="none" stroke-width="1" fill="none" fill-rule="evenodd">
        <circle id="Oval" stroke="#FFFFFF" cx="36" cy="36" r="35.5"></circle>
        <path d="M58.1695,24.5841 C59.1425,28.2391 59.1425,35.8631 59.1425,35.8631 C59.1425,35.8631 59.1425,43.4881 58.1695,47.1421 C57.6345,49.1581 56.0565,50.7461 54.0535,51.2851 C50.4225,52.2641 35.8635,52.2641 35.8635,52.2641 C35.8635,52.2641 21.3045,52.2641 17.6735,51.2851 C15.6695,50.7461 14.0925,49.1581 13.5575,47.1421 C12.5845,43.4881 12.5845,35.8631 12.5845,35.8631 C12.5845,35.8631 12.5845,28.2391 13.5575,24.5841 C14.0925,22.5681 15.6695,20.9801 17.6735,20.4411 C21.3045,19.4621 35.8635,19.4621 35.8635,19.4621 C35.8635,19.4621 50.4225,19.4621 54.0535,20.4411 C56.0565,20.9801 57.6345,22.5681 58.1695,24.5841 Z M31.1016,42.7858 L43.2696,35.8638 L31.1016,28.9408 L31.1016,42.7858 Z" id="Combined-Shape" fill="#FFFFFF"></path>
    </g>
</svg>